<mxfile host="Electron" agent="Mozilla/5.0 (Windows NT 10.0; Win64; x64) AppleWebKit/537.36 (KHTML, like Gecko) draw.io/26.2.2 Chrome/134.0.6998.178 Electron/35.1.2 Safari/537.36" version="26.2.2">
  <diagram name="Seite-1" id="l07f26GjmbZz3c291H7J">
    <mxGraphModel dx="1190" dy="701" grid="1" gridSize="10" guides="1" tooltips="1" connect="1" arrows="1" fold="1" page="1" pageScale="1" pageWidth="827" pageHeight="1169" math="0" shadow="0">
      <root>
        <mxCell id="0" />
        <mxCell id="1" parent="0" />
        <mxCell id="wHsihJ9_DCmYrqvMb5LN-1" value="" style="rounded=0;whiteSpace=wrap;html=1;" parent="1" vertex="1">
          <mxGeometry x="280" y="290" width="300" height="310" as="geometry" />
        </mxCell>
        <mxCell id="wHsihJ9_DCmYrqvMb5LN-11" style="edgeStyle=orthogonalEdgeStyle;rounded=0;orthogonalLoop=1;jettySize=auto;html=1;endArrow=block;endFill=0;startFill=0;" parent="1" source="wHsihJ9_DCmYrqvMb5LN-2" target="wHsihJ9_DCmYrqvMb5LN-3" edge="1">
          <mxGeometry relative="1" as="geometry" />
        </mxCell>
        <mxCell id="wHsihJ9_DCmYrqvMb5LN-2" value="Detailberatung durchführen" style="ellipse;whiteSpace=wrap;html=1;" parent="1" vertex="1">
          <mxGeometry x="364" y="470" width="120" height="80" as="geometry" />
        </mxCell>
        <mxCell id="wHsihJ9_DCmYrqvMb5LN-3" value="Beratung durchführen" style="ellipse;whiteSpace=wrap;html=1;" parent="1" vertex="1">
          <mxGeometry x="364" y="330" width="120" height="80" as="geometry" />
        </mxCell>
        <mxCell id="wHsihJ9_DCmYrqvMb5LN-5" value="Firma" style="text;html=1;align=center;verticalAlign=middle;resizable=0;points=[];autosize=1;strokeColor=none;fillColor=none;" parent="1" vertex="1">
          <mxGeometry x="280" y="260" width="50" height="30" as="geometry" />
        </mxCell>
        <mxCell id="wHsihJ9_DCmYrqvMb5LN-22" style="rounded=0;orthogonalLoop=1;jettySize=auto;html=1;endArrow=block;endFill=0;" parent="1" source="wHsihJ9_DCmYrqvMb5LN-6" edge="1">
          <mxGeometry relative="1" as="geometry">
            <mxPoint x="400" y="100" as="targetPoint" />
          </mxGeometry>
        </mxCell>
        <mxCell id="wHsihJ9_DCmYrqvMb5LN-6" value="Consultant" style="shape=umlActor;verticalLabelPosition=bottom;verticalAlign=top;html=1;outlineConnect=0;" parent="1" vertex="1">
          <mxGeometry x="130" y="340" width="30" height="60" as="geometry" />
        </mxCell>
        <mxCell id="wHsihJ9_DCmYrqvMb5LN-7" value="Kunde" style="shape=umlActor;verticalLabelPosition=bottom;verticalAlign=top;html=1;outlineConnect=0;" parent="1" vertex="1">
          <mxGeometry x="670" y="340" width="30" height="60" as="geometry" />
        </mxCell>
        <mxCell id="WW7-CYxNnoqHMhwRwVNC-1" style="edgeStyle=orthogonalEdgeStyle;rounded=0;orthogonalLoop=1;jettySize=auto;html=1;endArrow=none;startFill=0;" edge="1" parent="1" target="wHsihJ9_DCmYrqvMb5LN-3">
          <mxGeometry relative="1" as="geometry">
            <mxPoint x="424" y="120" as="sourcePoint" />
          </mxGeometry>
        </mxCell>
        <mxCell id="wHsihJ9_DCmYrqvMb5LN-20" value="Person" style="shape=umlActor;verticalLabelPosition=bottom;verticalAlign=top;html=1;outlineConnect=0;" parent="1" vertex="1">
          <mxGeometry x="409" y="20" width="30" height="60" as="geometry" />
        </mxCell>
        <mxCell id="wHsihJ9_DCmYrqvMb5LN-21" style="rounded=0;orthogonalLoop=1;jettySize=auto;html=1;endArrow=block;endFill=0;" parent="1" source="wHsihJ9_DCmYrqvMb5LN-7" edge="1">
          <mxGeometry relative="1" as="geometry">
            <mxPoint x="450" y="100" as="targetPoint" />
          </mxGeometry>
        </mxCell>
      </root>
    </mxGraphModel>
  </diagram>
</mxfile>
